<?xml version="1.0" encoding="UTF-8"?>
<svg id="_レイヤー_2" data-name="レイヤー 2" xmlns="http://www.w3.org/2000/svg" xmlns:xlink="http://www.w3.org/1999/xlink" viewBox="0 0 1500 605.52">
  <defs>
    <style>
      .cls-1 {
        fill: url(#_名称未設定グラデーション_11);
      }

      .cls-2 {
        fill: url(#_名称未設定グラデーション_8);
      }

      .cls-3 {
        fill: #202020;
      }

      .cls-4 {
        fill: url(#_名称未設定グラデーション_7);
      }
    </style>
    <linearGradient id="_名称未設定グラデーション_8" data-name="名称未設定グラデーション 8" x1="505.9" y1="310.76" x2="713.96" y2="310.76" gradientUnits="userSpaceOnUse">
      <stop offset="0" stop-color="#8780e0"/>
      <stop offset="1" stop-color="#70c7c7"/>
    </linearGradient>
    <linearGradient id="_名称未設定グラデーション_7" data-name="名称未設定グラデーション 7" x1="1017.36" y1="130.31" x2="1296.21" y2="130.31" gradientUnits="userSpaceOnUse">
      <stop offset="0" stop-color="#70c7c7"/>
      <stop offset="1" stop-color="#41b962"/>
    </linearGradient>
    <linearGradient id="_名称未設定グラデーション_11" data-name="名称未設定グラデーション 11" x1="138.89" y1="388.78" x2="0" y2="388.78" gradientUnits="userSpaceOnUse">
      <stop offset="0" stop-color="#a080dd"/>
      <stop offset="1" stop-color="#ffc7ee"/>
    </linearGradient>
  </defs>
  <g id="_レイヤー_1-2" data-name="レイヤー 1">
    <g id="aramakisai">
      <path class="cls-3" d="M374.84,72.39v34.86h-46.12v-34.86h-174.82v34.86h-46.12v-34.86H0V31.1h107.79V0h46.12v31.1h174.82V0h46.12v31.1h107.79v41.29h-107.79ZM74.54,173.75v40.22c0,12.33,10.73,22.52,22.52,22.52h296.01c25.74,0,51.48-4.29,75.07-15.55v42.36c-22.52,9.12-45.58,13.41-68.64,13.41H84.19c-31.1,0-55.23-24.13-55.23-55.23v-47.73H0v-39.15h218.79v-34.32h45.05v34.32h218.79v39.15H74.54ZM217.18,481.02v-185.54h47.73v185.54h-47.73ZM437.05,476.19h-37c-29.49,0-50.41-21.45-50.41-50.41v-130.31h47.19v115.83c0,11.8,9.12,19.84,19.84,19.84h20.91c17.7,0,32.71-5.9,45.05-16.09v48.8c-13.94,8.04-29.49,12.33-45.58,12.33Z"/>
      <path class="cls-3" d="M1432.96,354.46h-49.33l67.57,121.73h48.81l-67.04-121.73ZM1020.05,287.43v43.97h223.61v85.8c0,11.8-8.04,21.45-20.91,21.45h-61.13v43.97h70.25c39.15,0,60.06-22.52,60.06-58.99v-92.23h204.85v-43.97h-476.72ZM1086.54,354.46c-12.33,43.97-35.39,85.8-68.64,121.73h52.55c26.81-31.64,48.26-74,62.74-121.73h-46.65ZM1400.24,154.98l86.87-109.93V9.66h-143.71v37h94.38l-65.96,86.87c-24.6-21.44-45.28-46.33-59.34-75.13-7.39-15.14-12.94-31.37-16.27-48.74h-136.74c1.61-2.68,2.68-5.9,3.75-9.65h-41.83c-11.8,35.93-53.09,69.71-104.03,80.97v45.58c5.36-1.07,10.72-2.68,16.09-4.83l49.07,61.94,51.75,20.65v28.96h253.64v-33.78c34.86,22.52,73.47,39.68,112.09,50.41v-46.12c-34.33-11.26-69.19-27.88-99.76-48.8ZM1139.09,46.66h95.16c1.57,7.73-5.75,15.17-9.29,21.07-.06.1.01-.01-.06.1-12.59,20.91-30.17,37.59-49.35,55.51l-.23-.28-49.11-60.31c4.83-5.36,9.12-10.19,12.87-16.09ZM1062.41,109.93c15.55-7.51,30.03-17.16,42.9-27.35l47.73,59.52c-1.58,14.11-28.16,23.7-42.62,28.16l-48-60.34ZM1156.79,189.83c7.71-7.89,14.1-11.11,21.88-18.39,31.11-29.08,89.64-102.17,91.26-105.49.1.21.2.44.3.65,10.78,24.29,25.15,46.68,42.25,66.95,17.81,21.11,38.61,39.94,61.48,56.28h-217.18Z"/>
      <path class="cls-3" d="M854.99,402.73c-37.54,37.54-83.12,64.89-136.21,79.9v-50.41c40.22-13.41,76.68-35.39,106.72-64.89-33.25-45.58-55.77-100.28-67.03-158.73-11.8,13.41-24.67,25.2-39.15,34.86v-62.21c35.93-32.71,56.84-100.81,56.84-181.25h46.65c0,20.91-1.61,40.22-3.75,58.99h169.99v44.51h-20.91c-2.68,105.11-32.18,197.34-84.19,265.98,28.42,28.42,63.28,49.87,105.1,63.28v49.87c-54.7-16.09-98.67-43.44-134.06-79.9ZM810.49,103.5c-10.19,39.68-26.28,74-48.8,100.82h40.22c8.58,49.87,26.27,93.31,52.01,130.31,41.83-56.31,66.5-133.53,69.18-231.13h-112.61ZM654.98,86.87V0h-45.58v86.87h-43.44c1.61-22.52,2.68-48.26,2.68-77.22h-37c0,94.38-6.97,159.8-26.28,196.8h37.54c7.51-13.94,13.94-38.61,18.77-73.47h47.73v350.7h45.58V132.99h61.67v-46.12h-61.67Z"/>
      <path class="cls-2" d="M654.98,283.68c-44.63,14.67-110.84,30.69-149.08,31.64v47.19c57.97-2.5,153.71-29.17,208.06-53.62v-49.87c-12.87,7.51-34.12,16.69-58.99,24.67Z"/>
      <path class="cls-4" d="M1250.65,9.66c-24.4,68.5-76.16,125.32-140.39,160.56-28.89,15.85-60.31,27.34-92.89,33.56v47.19c132.83-28.82,237.06-123.21,278.85-241.31h-45.57Z"/>
      <path class="cls-1" d="M0,482.63v-46.65c68.1-21.99,92.24-74,92.24-136.74v-4.29h46.65c0,94.92-40.76,165.7-138.89,187.69Z"/>
      <g>
        <path class="cls-3" d="M682.22,584.5h-42.7l-9.2,20.47h-8.43l35.03-76.64h7.99l35.03,76.64h-8.54l-9.2-20.47ZM679.27,577.93l-18.39-41.17-18.39,41.17h36.79Z"/>
        <path class="cls-3" d="M773.01,604.97l-17.52-24.63c-1.97.22-3.94.33-6.13.33h-20.58v24.31h-8.1v-76.64h28.68c19.49,0,31.31,9.85,31.31,26.28,0,12.04-6.35,20.47-17.52,24.09l18.72,26.28h-8.87ZM772.57,554.61c0-12.26-8.1-19.27-23.43-19.27h-20.36v38.43h20.36c15.33,0,23.43-7.12,23.43-19.16Z"/>
        <path class="cls-3" d="M859.71,584.5h-42.7l-9.2,20.47h-8.43l35.03-76.64h7.99l35.03,76.64h-8.54l-9.2-20.47ZM856.76,577.93l-18.39-41.17-18.39,41.17h36.79Z"/>
        <path class="cls-3" d="M977.76,528.33v76.64h-7.77v-61.31l-30.11,51.57h-3.83l-30.11-51.24v60.98h-7.77v-76.64h6.68l33.28,56.82,32.95-56.82h6.68Z"/>
        <path class="cls-3" d="M1058.8,584.5h-42.7l-9.2,20.47h-8.43l35.03-76.64h7.99l35.03,76.64h-8.54l-9.2-20.47ZM1055.84,577.93l-18.39-41.17-18.39,41.17h36.79Z"/>
        <path class="cls-3" d="M1121.01,568.95l-15.66,15.88v20.14h-8.1v-76.64h8.1v46.31l45-46.31h9.31l-33.17,34.71,35.47,41.93h-9.64l-31.31-36.02Z"/>
        <path class="cls-3" d="M1182.81,528.33h8.1v76.64h-8.1v-76.64Z"/>
        <path class="cls-3" d="M1219.05,571.91h28.68v6.79h-28.68v-6.79Z"/>
        <path class="cls-3" d="M1283.99,535.34v30.11h39.63v7.01h-39.63v32.52h-8.1v-76.64h52.55v7.01h-44.45Z"/>
        <path class="cls-3" d="M1400.56,578.59h-48.17c.88,12.04,10.07,20.03,22.66,20.03,7.01,0,13.25-2.52,17.63-7.55l4.38,5.04c-5.15,6.13-13.14,9.42-22.23,9.42-17.95,0-30.22-12.26-30.22-29.34s11.93-29.23,28.14-29.23,27.92,11.93,27.92,29.23c0,.66-.11,1.53-.11,2.41ZM1352.38,572.78h40.84c-.99-11.28-9.2-19.16-20.47-19.16s-19.38,7.88-20.36,19.16Z"/>
        <path class="cls-3" d="M1417.27,598.4l3.5-6.13c4.6,3.61,12.37,6.46,20.47,6.46,10.95,0,15.44-3.72,15.44-9.42,0-15-37.33-3.17-37.33-25.95,0-9.42,8.1-16.42,22.77-16.42,7.44,0,15.55,2.08,20.36,5.36l-3.39,6.24c-5.04-3.5-11.06-4.93-16.97-4.93-10.4,0-15,4.05-15,9.52,0,15.55,37.33,3.83,37.33,25.95,0,9.96-8.76,16.42-23.76,16.42-9.53,0-18.72-3.07-23.43-7.12Z"/>
        <path class="cls-3" d="M1484.63,599.5c0-3.39,2.63-5.91,5.8-5.91s5.91,2.52,5.91,5.91-2.74,6.02-5.91,6.02-5.8-2.63-5.8-6.02Z"/>
      </g>
    </g>
  </g>
</svg>
