<?xml version="1.0" encoding="UTF-8"?>
<svg id="_レイヤー_2" data-name="レイヤー 2" xmlns="http://www.w3.org/2000/svg" xmlns:xlink="http://www.w3.org/1999/xlink" viewBox="0 0 1500 909.72">
  <defs>
    <style>
      .cls-1 {
        fill: url(#_名称未設定グラデーション_11);
      }

      .cls-2 {
        fill: url(#_名称未設定グラデーション_8);
      }

      .cls-3 {
        fill: #202020;
      }

      .cls-4 {
        fill: url(#_名称未設定グラデーション_7);
      }
    </style>
    <linearGradient id="_名称未設定グラデーション_8" data-name="名称未設定グラデーション 8" x1="502.62" y1="643.4" x2="709.33" y2="643.4" gradientUnits="userSpaceOnUse">
      <stop offset="0" stop-color="#8780e0"/>
      <stop offset="1" stop-color="#70c7c7"/>
    </linearGradient>
    <linearGradient id="_名称未設定グラデーション_7" data-name="名称未設定グラデーション 7" x1="1010.77" y1="464.12" x2="1287.81" y2="464.12" gradientUnits="userSpaceOnUse">
      <stop offset="0" stop-color="#70c7c7"/>
      <stop offset="1" stop-color="#41b962"/>
    </linearGradient>
    <linearGradient id="_名称未設定グラデーション_11" data-name="名称未設定グラデーション 11" x1="137.99" y1="720.92" x2="0" y2="720.92" gradientUnits="userSpaceOnUse">
      <stop offset="0" stop-color="#a080dd"/>
      <stop offset="1" stop-color="#ffc7ee"/>
    </linearGradient>
  </defs>
  <g id="_レイヤー_1-2" data-name="レイヤー 1">
    <g id="aramakisai2026">
      <path class="cls-3" d="M372.41,406.58v34.63h-45.82v-34.63h-173.69v34.63h-45.82v-34.63H0v-41.02h107.09v-30.9h45.82v30.9h173.69v-30.9h45.82v30.9h107.09v41.02h-107.09ZM74.06,507.28v39.96c0,12.25,10.66,22.38,22.38,22.38h294.09c25.57,0,51.15-4.26,74.59-15.45v42.09c-22.38,9.06-45.29,13.32-68.2,13.32H83.65c-30.9,0-54.88-23.97-54.88-54.88v-47.42H0v-38.89h217.37v-34.1h44.75v34.1h217.37v38.89H74.06ZM215.77,812.56v-184.34h47.42v184.34h-47.42ZM434.21,807.76h-36.76c-29.3,0-50.08-21.31-50.08-50.08v-129.46h46.88v115.08c0,11.72,9.06,19.71,19.71,19.71h20.78c17.58,0,32.5-5.86,44.75-15.98v48.48c-13.85,7.99-29.3,12.25-45.29,12.25Z"/>
      <path class="cls-3" d="M1423.67,686.82h-49.01l67.13,120.94h48.5l-66.61-120.94ZM1013.43,620.22v43.69h222.16v85.24c0,11.72-7.99,21.31-20.78,21.31h-60.74v43.69h69.79c38.89,0,59.67-22.38,59.67-58.6v-91.64h203.52v-43.69h-473.63ZM1079.5,686.82c-12.25,43.69-35.16,85.24-68.19,120.94h52.21c26.64-31.43,47.95-73.52,62.33-120.94h-46.35ZM1391.17,488.63l86.31-109.22v-35.16h-142.78v36.76h93.77l-65.53,86.31c-24.44-21.3-44.99-46.03-58.96-74.64-7.35-15.04-12.86-31.17-16.17-48.43h-135.86c1.6-2.66,2.66-5.86,3.73-9.59h-41.56c-11.72,35.7-52.74,69.26-103.36,80.45v45.29c5.33-1.07,10.66-2.66,15.98-4.79l48.75,61.53,51.41,20.51v28.77h252v-33.56c34.63,22.38,72.99,39.42,111.36,50.08v-45.82c-34.11-11.19-68.74-27.7-99.11-48.48ZM1131.71,381.01h94.55c1.56,7.68-5.71,15.07-9.23,20.93-.06.1.01-.01-.06.1-12.51,20.78-29.98,37.35-49.03,55.15l-.22-.28-48.79-59.92c4.8-5.33,9.06-10.12,12.79-15.98ZM1055.52,443.88c15.45-7.46,29.84-17.05,42.62-27.17l47.42,59.14c-1.57,14.02-27.97,23.55-42.35,27.98l-47.69-59.94ZM1149.29,523.26c7.66-7.84,14-11.03,21.74-18.27,30.91-28.89,89.06-101.51,90.67-104.8.1.21.2.43.29.64,10.71,24.13,24.98,46.38,41.98,66.51,17.69,20.97,38.36,39.68,61.09,55.91h-215.77Z"/>
      <path class="cls-3" d="M849.45,734.77c-37.29,37.29-82.58,64.47-135.32,79.38v-50.08c39.96-13.32,76.19-35.16,106.02-64.47-33.03-45.29-55.41-99.63-66.6-157.7-11.72,13.32-24.51,25.04-38.89,34.63v-61.8c35.7-32.5,56.47-100.16,56.47-180.08h46.35c0,20.78-1.6,39.96-3.73,58.61h168.89v44.22h-20.78c-2.66,104.42-31.97,196.06-83.64,264.26,28.24,28.24,62.87,49.55,104.42,62.87v49.55c-54.34-15.98-98.03-43.15-133.2-79.38ZM805.23,437.48c-10.12,39.43-26.11,73.52-48.48,100.16h39.96c8.52,49.55,26.1,92.7,51.68,129.47,41.56-55.94,66.06-132.66,68.73-229.63h-111.88ZM650.73,420.97v-86.31h-45.29v86.31h-43.15c1.6-22.38,2.66-47.95,2.66-76.72h-36.76c0,93.77-6.93,158.77-26.11,195.53h37.29c7.46-13.85,13.85-38.36,18.65-72.99h47.42v348.43h45.29v-348.43h61.27v-45.82h-61.27Z"/>
      <path class="cls-2" d="M650.73,616.49c-44.34,14.57-110.12,30.49-148.11,31.43v46.88c57.6-2.48,152.71-28.98,206.71-53.28v-49.55c-12.79,7.46-33.9,16.58-58.6,24.51Z"/>
      <path class="cls-4" d="M1242.54,344.25c-24.25,68.06-75.67,124.51-139.48,159.52-28.71,15.75-59.92,27.16-92.29,33.34v46.88c131.97-28.63,235.52-122.42,277.04-239.75h-45.27Z"/>
      <path class="cls-1" d="M0,814.15v-46.35c67.66-21.85,91.64-73.52,91.64-135.86v-4.26h46.35c0,94.3-40.49,164.63-137.99,186.47Z"/>
      <g>
        <path class="cls-3" d="M818.49,892.38h-35.23l-7.59,16.89h-6.96l28.91-63.24h6.6l28.91,63.24h-7.05l-7.59-16.89ZM816.05,886.96l-15.18-33.97-15.18,33.97h30.35Z"/>
        <path class="cls-3" d="M893.4,909.27l-14.46-20.33c-1.63.18-3.25.27-5.06.27h-16.98v20.06h-6.68v-63.24h23.67c16.08,0,25.84,8.13,25.84,21.68,0,9.94-5.24,16.89-14.45,19.88l15.45,21.68h-7.32ZM893.04,867.71c0-10.12-6.69-15.9-19.33-15.9h-16.8v31.71h16.8c12.65,0,19.33-5.87,19.33-15.81Z"/>
        <path class="cls-3" d="M964.95,892.38h-35.23l-7.59,16.89h-6.96l28.91-63.24h6.6l28.91,63.24h-7.05l-7.59-16.89ZM962.51,886.96l-15.18-33.97-15.18,33.97h30.35Z"/>
        <path class="cls-3" d="M1062.36,846.03v63.24h-6.42v-50.59l-24.84,42.55h-3.16l-24.84-42.28v50.32h-6.41v-63.24h5.51l27.46,46.89,27.19-46.89h5.51Z"/>
        <path class="cls-3" d="M1129.23,892.38h-35.23l-7.59,16.89h-6.96l28.91-63.24h6.6l28.91,63.24h-7.05l-7.59-16.89ZM1126.79,886.96l-15.18-33.97-15.18,33.97h30.35Z"/>
        <path class="cls-3" d="M1180.57,879.55l-12.92,13.1v16.62h-6.68v-63.24h6.68v38.22l37.13-38.22h7.68l-27.37,28.64,29.27,34.6h-7.95l-25.84-29.72Z"/>
        <path class="cls-3" d="M1231.56,846.03h6.68v63.24h-6.68v-63.24Z"/>
        <path class="cls-3" d="M1261.47,881.99h23.67v5.6h-23.67v-5.6Z"/>
        <path class="cls-3" d="M1315.05,851.81v24.84h32.7v5.78h-32.7v26.83h-6.68v-63.24h43.36v5.78h-36.68Z"/>
        <path class="cls-3" d="M1411.24,887.5h-39.75c.72,9.94,8.31,16.53,18.7,16.53,5.78,0,10.93-2.08,14.54-6.23l3.61,4.16c-4.25,5.06-10.84,7.77-18.34,7.77-14.82,0-24.93-10.12-24.93-24.21s9.85-24.12,23.22-24.12,23.04,9.85,23.04,24.12c0,.54-.09,1.26-.09,1.99ZM1371.48,882.71h33.7c-.81-9.31-7.59-15.81-16.89-15.81s-15.99,6.5-16.8,15.81Z"/>
        <path class="cls-3" d="M1425.02,903.85l2.89-5.06c3.79,2.98,10.21,5.33,16.89,5.33,9.03,0,12.74-3.07,12.74-7.77,0-12.38-30.81-2.62-30.81-21.41,0-7.77,6.68-13.55,18.79-13.55,6.14,0,12.83,1.72,16.8,4.43l-2.8,5.15c-4.16-2.89-9.13-4.07-14-4.07-8.58,0-12.38,3.34-12.38,7.86,0,12.83,30.81,3.16,30.81,21.41,0,8.22-7.23,13.55-19.61,13.55-7.86,0-15.45-2.53-19.33-5.87Z"/>
        <path class="cls-3" d="M1480.61,904.75c0-2.8,2.17-4.88,4.79-4.88s4.88,2.08,4.88,4.88-2.26,4.97-4.88,4.97-4.79-2.17-4.79-4.97Z"/>
      </g>
      <g>
        <path class="cls-3" d="M551.26,289.37l102.95-119.05c7.2-8.47,26.27-30.93,33.05-41.1,12.71-18.22,15.68-31.78,15.68-43.21,0-31.78-22.88-55.08-56.35-55.08-19.91,0-36.44,8.9-47.03,25-5.51,8.47-8.9,19.07-9.32,33.47h-31.35c1.27-28.39,10.17-45.76,21.18-58.47,11.86-13.56,31.78-28.81,66.94-28.81,49.99,0,87.28,35.59,87.28,84.31,0,19.07-5.51,36.44-22.45,60.58-11.86,16.52-27.11,33.89-38.55,47.03l-58.89,66.52h119.47v28.81h-182.6Z"/>
        <path class="cls-3" d="M771.77,148.28c0-84.31,65.67-146.17,147.01-146.17s147.01,61.86,147.01,146.17-65.25,146.17-147.01,146.17-147.01-62.28-147.01-146.17ZM803.97,148.28c0,64.82,51.26,116.51,114.81,116.51s114.81-51.69,114.81-116.51-51.26-116.51-114.81-116.51-114.81,51.69-114.81,116.51Z"/>
        <path class="cls-3" d="M1086.59,289.37l102.95-119.05c7.2-8.47,26.27-30.93,33.05-41.1,12.71-18.22,15.68-31.78,15.68-43.21,0-31.78-22.88-55.08-56.35-55.08-19.91,0-36.44,8.9-47.03,25-5.51,8.47-8.9,19.07-9.32,33.47h-31.35c1.27-28.39,10.17-45.76,21.18-58.47,11.86-13.56,31.78-28.81,66.94-28.81,49.99,0,87.28,35.59,87.28,84.31,0,19.07-5.51,36.44-22.45,60.58-11.86,16.52-27.11,33.89-38.55,47.03l-58.89,66.52h119.47v28.81h-182.6Z"/>
        <path class="cls-3" d="M1448.31,17.79l-64.82,90.24c8.05-2.54,16.1-3.81,25-3.81,54.23,0,91.51,40.67,91.51,93.21,0,56.35-40.67,97.02-97.02,97.02-66.52,0-97.87-51.69-97.87-96.17,0-10.59,2.12-35.16,23.3-64.82L1424.59,0l23.73,17.79ZM1468.65,198.28c0-37.71-27.96-65.24-66.52-65.24s-65.67,28.39-65.67,65.24,26.69,67.36,66.09,67.36,66.09-29.23,66.09-67.36Z"/>
      </g>
    </g>
  </g>
</svg>
